<svg width="128" height="128" viewBox="0 0 128 128" fill="none" xmlns="http://www.w3.org/2000/svg">
  <!-- Gradient background -->
  <defs>
    <linearGradient id="iconGradient" x1="0%" y1="0%" x2="100%" y2="100%">
      <stop offset="0%" stop-color="#6366F1" />
      <stop offset="50%" stop-color="#8B5CF6" />
      <stop offset="100%" stop-color="#EC4899" />
    </linearGradient>
    <filter id="glow" x="-20%" y="-20%" width="140%" height="140%">
      <feGaussianBlur stdDeviation="4" result="blur" />
      <feComposite in="SourceGraphic" in2="blur" operator="over" />
    </filter>
    <linearGradient id="glassGradient" x1="0%" y1="0%" x2="100%" y2="100%">
      <stop offset="0%" stop-color="rgba(255, 255, 255, 0.4)" />
      <stop offset="100%" stop-color="rgba(255, 255, 255, 0.1)" />
    </linearGradient>
  </defs>
  
  <!-- Main circle with gradient -->
  <circle cx="64" cy="64" r="60" fill="url(#iconGradient)" />
  
  <!-- Glass effect overlay -->
  <circle cx="64" cy="64" r="54" fill="url(#glassGradient)" filter="url(#glow)" opacity="0.7" />
  
  <!-- Sparkle effect -->
  <circle cx="40" cy="40" r="4" fill="white" opacity="0.8" />
  <circle cx="36" cy="36" r="2" fill="white" opacity="0.6" />
  
  <!-- Brain icon (Font Awesome style) -->
  <path d="M64.5 30C58.5 30 53.5 35 53.5 41C53.5 41.7 53.6 42.4 53.8 43C49.9 43.2 46.5 46.2 46.5 50C46.5 52 47.4 53.7 48.8 54.8C46.1 56.6 44.5 59.6 44.5 63C44.5 65.3 45.3 67.4 46.6 69C45.3 70.6 44.5 72.7 44.5 75C44.5 78.4 46.1 81.4 48.8 83.2C47.4 84.3 46.5 86 46.5 88C46.5 91.9 49.9 95 53.8 95.2C53.6 95.8 53.5 96.5 53.5 97.2C53.5 103.2 58.5 108.2 64.5 108.2C70.5 108.2 75.5 103.2 75.5 97.2C75.5 96.5 75.4 95.8 75.2 95.2C79.1 95 82.5 91.9 82.5 88C82.5 86 81.6 84.3 80.2 83.2C82.9 81.4 84.5 78.4 84.5 75C84.5 72.7 83.7 70.6 82.4 69C83.7 67.4 84.5 65.3 84.5 63C84.5 59.6 82.9 56.6 80.2 54.8C81.6 53.7 82.5 52 82.5 50C82.5 46.2 79.1 43.2 75.2 43C75.4 42.4 75.5 41.7 75.5 41C75.5 35 70.5 30 64.5 30ZM59.5 41C59.5 38.8 61.3 37 63.5 37C65.7 37 67.5 38.8 67.5 41C67.5 43.2 65.7 45 63.5 45C61.3 45 59.5 43.2 59.5 41ZM55.5 50C55.5 47.8 57.3 46 59.5 46C61.7 46 63.5 47.8 63.5 50C63.5 52.2 61.7 54 59.5 54C57.3 54 55.5 52.2 55.5 50ZM51.5 63C51.5 60.8 53.3 59 55.5 59C57.7 59 59.5 60.8 59.5 63C59.5 65.2 57.7 67 55.5 67C53.3 67 51.5 65.2 51.5 63ZM55.5 75C55.5 72.8 57.3 71 59.5 71C61.7 71 63.5 72.8 63.5 75C63.5 77.2 61.7 79 59.5 79C57.3 79 55.5 77.2 55.5 75ZM59.5 88C59.5 85.8 61.3 84 63.5 84C65.7 84 67.5 85.8 67.5 88C67.5 90.2 65.7 92 63.5 92C61.3 92 59.5 90.2 59.5 88ZM63.5 101C61.3 101 59.5 99.2 59.5 97C59.5 94.8 61.3 93 63.5 93C65.7 93 67.5 94.8 67.5 97C67.5 99.2 65.7 101 63.5 101ZM69.5 88C69.5 85.8 71.3 84 73.5 84C75.7 84 77.5 85.8 77.5 88C77.5 90.2 75.7 92 73.5 92C71.3 92 69.5 90.2 69.5 88ZM73.5 75C73.5 72.8 75.3 71 77.5 71C79.7 71 81.5 72.8 81.5 75C81.5 77.2 79.7 79 77.5 79C75.3 79 73.5 77.2 73.5 75ZM77.5 63C77.5 60.8 79.3 59 81.5 59C83.7 59 85.5 60.8 85.5 63C85.5 65.2 83.7 67 81.5 67C79.3 67 77.5 65.2 77.5 63ZM73.5 50C73.5 47.8 75.3 46 77.5 46C79.7 46 81.5 47.8 81.5 50C81.5 52.2 79.7 54 77.5 54C75.3 54 73.5 52.2 73.5 50Z" fill="white" opacity="0.9" filter="url(#glow)" />
</svg>